<svg width="34" height="35" viewBox="0 0 34 35" fill="none" xmlns="http://www.w3.org/2000/svg">
<path d="M27.0343 2.07715L21.3546 31.2793L5.78007 22.8926L27.0343 2.07715Z" fill="#4F2D20"/>
<path d="M32.0778 11.5593L27.8659 31.04L18.1319 25.7983L32.0778 11.5593Z" fill="#4F2D20"/>
<path d="M15.9672 2.8839L11.7554 22.3646L2.02128 17.123L15.9672 2.8839Z" fill="#4F2D20"/>
<path d="M27.8694 31.0419L2.01753 17.121L0 20.8676L25.8519 34.7886L27.8694 31.0419Z" fill="#4F2D20"/>
<path d="M13.7331 26.3295C15.0781 27.0538 17.2975 25.5441 18.6903 22.9576C20.0831 20.3711 20.1219 17.6872 18.7769 16.9629C17.4319 16.2386 15.2125 17.7483 13.8197 20.3348C12.4269 22.9213 12.3881 25.6052 13.7331 26.3295Z" fill="#9F54DA"/>
<path d="M26.429 3.20109C27.2567 3.64679 28.289 3.33719 28.7347 2.50947C29.1804 1.68179 28.8707 0.649501 28.043 0.203801C27.2153 -0.241899 26.183 0.0677609 25.7373 0.895451C25.2916 1.72313 25.6013 2.75539 26.429 3.20109Z" fill="#9F54DA"/>
<path d="M15.5636 3.63329C16.1844 3.96759 16.9586 3.73529 17.2929 3.11449C17.6272 2.49376 17.3949 1.71955 16.7742 1.38527C16.1534 1.051 15.3792 1.28324 15.0449 1.90401C14.7106 2.52478 14.9429 3.29899 15.5636 3.63329Z" fill="#9F54DA"/>
<path d="M31.6742 12.3086C32.295 12.6429 33.0692 12.4106 33.4035 11.7899C33.7378 11.1691 33.5055 10.3949 32.8848 10.0606C32.264 9.72629 31.4898 9.95859 31.1555 10.5793C30.8212 11.2001 31.0535 11.9743 31.6742 12.3086Z" fill="#9F54DA"/>
</svg>
