<svg width="35" height="36" viewBox="0 0 35 36" fill="none" xmlns="http://www.w3.org/2000/svg">
<path d="M27.8187 2.33816L22.139 31.5403L6.5645 23.1536L27.8187 2.33816Z" fill="#4F2D20"/>
<path d="M32.8622 11.8203L28.6503 31.301L18.9163 26.0593L32.8622 11.8203Z" fill="#4F2D20"/>
<path d="M16.7516 3.1449L12.5398 22.6256L2.80571 17.384L16.7516 3.1449Z" fill="#4F2D20"/>
<path d="M28.6538 31.3029L2.80196 17.382L0.784431 21.1286L26.6363 35.0496L28.6538 31.3029Z" fill="#4F2D20"/>
<path d="M14.5175 26.5905C15.8625 27.3148 18.0819 25.8051 19.4747 23.2186C20.8675 20.6321 20.9063 17.9482 19.5613 17.2239C18.2163 16.4996 15.9969 18.0093 14.6041 20.5958C13.2113 23.1823 13.1725 25.8662 14.5175 26.5905Z" fill="#F36413"/>
<path d="M27.2134 3.4621C28.0411 3.9078 29.0734 3.5982 29.5191 2.77048C29.9648 1.9428 29.6551 0.91051 28.8274 0.46481C27.9997 0.0191103 26.9674 0.32877 26.5217 1.15646C26.076 1.98414 26.3857 3.0164 27.2134 3.4621Z" fill="#F36413"/>
<path d="M16.348 3.8943C16.9688 4.2286 17.743 3.9963 18.0773 3.3755C18.4116 2.75477 18.1793 1.98056 17.5586 1.64628C16.9378 1.31201 16.1636 1.54425 15.8293 2.16502C15.495 2.78579 15.7273 3.56 16.348 3.8943Z" fill="#F36413"/>
<path d="M32.4586 12.5696C33.0794 12.9039 33.8536 12.6716 34.1879 12.0509C34.5222 11.4301 34.2899 10.6559 33.6692 10.3216C33.0484 9.9873 32.2742 10.2196 31.9399 10.8403C31.6056 11.4611 31.8379 12.2353 32.4586 12.5696Z" fill="#F36413"/>
</svg>
